<svg width="330" height="330" viewBox="0 0 330 330" fill="none" xmlns="http://www.w3.org/2000/svg">
<line x1="32.3628" y1="230" x2="32.3628" y2="330" stroke="#05BFDB"/>
<line y1="266.247" x2="100" y2="266.247" stroke="#05BFDB"/>
<line y1="301.915" x2="100" y2="301.915" stroke="#05BFDB"/>
<line x1="67.1221" y1="230" x2="67.1221" y2="330" stroke="#05BFDB"/>
<line x1="148.363" x2="148.363" y2="100" stroke="#05BFDB"/>
<line x1="116" y1="36.2469" x2="216" y2="36.2469" stroke="#05BFDB"/>
<line x1="116" y1="71.9153" x2="216" y2="71.9153" stroke="#05BFDB"/>
<line x1="183.122" x2="183.122" y2="100" stroke="#05BFDB"/>
<line x1="262.363" x2="262.363" y2="100" stroke="#05BFDB"/>
<line x1="230" y1="36.2469" x2="330" y2="36.2469" stroke="#05BFDB"/>
<line x1="230" y1="71.9153" x2="330" y2="71.9153" stroke="#05BFDB"/>
<line x1="297.122" x2="297.122" y2="100" stroke="#05BFDB"/>
<line x1="262.363" y1="115" x2="262.363" y2="215" stroke="#05BFDB"/>
<line x1="230" y1="151.247" x2="330" y2="151.247" stroke="#05BFDB"/>
<line x1="230" y1="186.915" x2="330" y2="186.915" stroke="#05BFDB"/>
<line x1="297.122" y1="115" x2="297.122" y2="215" stroke="#05BFDB"/>
<line x1="262.363" y1="230" x2="262.363" y2="330" stroke="#05BFDB"/>
<line x1="230" y1="266.247" x2="330" y2="266.247" stroke="#05BFDB"/>
<line x1="230" y1="301.915" x2="330" y2="301.915" stroke="#05BFDB"/>
<line x1="297.122" y1="230" x2="297.122" y2="330" stroke="#05BFDB"/>
<line x1="148.363" y1="230" x2="148.363" y2="330" stroke="#05BFDB"/>
<line x1="116" y1="266.247" x2="216" y2="266.247" stroke="#05BFDB"/>
<line x1="116" y1="301.915" x2="216" y2="301.915" stroke="#05BFDB"/>
<line x1="183.122" y1="230" x2="183.122" y2="330" stroke="#05BFDB"/>
<line x1="148.363" y1="115" x2="148.363" y2="215" stroke="#05BFDB"/>
<line x1="116" y1="151.247" x2="216" y2="151.247" stroke="#05BFDB"/>
<line x1="116" y1="186.915" x2="216" y2="186.915" stroke="#05BFDB"/>
<line x1="183.122" y1="115" x2="183.122" y2="215" stroke="#05BFDB"/>
<line x1="32.3628" y1="115" x2="32.3628" y2="215" stroke="#05BFDB"/>
<line y1="151.247" x2="100" y2="151.247" stroke="#05BFDB"/>
<line y1="186.915" x2="100" y2="186.915" stroke="#05BFDB"/>
<line x1="67.1221" y1="115" x2="67.1221" y2="215" stroke="#05BFDB"/>
<line x1="32.3628" x2="32.3628" y2="100" stroke="#05BFDB"/>
<line y1="36.2469" x2="100" y2="36.2469" stroke="#05BFDB"/>
<line y1="71.9153" x2="100" y2="71.9153" stroke="#05BFDB"/>
<line x1="67.1221" x2="67.1221" y2="100" stroke="#05BFDB"/>
<line x1="107.147" x2="107.147" y2="330" stroke="#00FFCA" stroke-width="4"/>
<line y1="105.265" x2="330" y2="105.265" stroke="#00FFCA" stroke-width="4"/>
<line y1="222.971" x2="330" y2="222.971" stroke="#00FFCA" stroke-width="4"/>
<line x1="221.853" x2="221.853" y2="330" stroke="#00FFCA" stroke-width="4"/>
</svg>
